<svg xmlns="http://www.w3.org/2000/svg" xmlns:xlink="http://www.w3.org/1999/xlink" width="1080" zoomAndPan="magnify" viewBox="0 0 810 809.999993" height="1080" preserveAspectRatio="xMidYMid meet" version="1.0"><defs><clipPath id="59be8984af"><path d="M 6.648438 6.648438 L 803.351562 6.648438 L 803.351562 803.351562 L 6.648438 803.351562 Z M 6.648438 6.648438 " clip-rule="nonzero"/></clipPath><clipPath id="06be82224e"><path d="M 405 6.648438 C 184.996094 6.648438 6.648438 184.996094 6.648438 405 C 6.648438 625.003906 184.996094 803.351562 405 803.351562 C 625.003906 803.351562 803.351562 625.003906 803.351562 405 C 803.351562 184.996094 625.003906 6.648438 405 6.648438 Z M 405 6.648438 " clip-rule="nonzero"/></clipPath><clipPath id="6956964a38"><path d="M 350.292969 302 L 459.792969 302 L 459.792969 628 L 350.292969 628 Z M 350.292969 302 " clip-rule="nonzero"/></clipPath><clipPath id="b7d3886163"><path d="M 350.292969 166 L 459.792969 166 L 459.792969 277 L 350.292969 277 Z M 350.292969 166 " clip-rule="nonzero"/></clipPath></defs><g clip-path="url(#59be8984af)"><g clip-path="url(#06be82224e)"><path fill="#9336e1" d="M 6.648438 6.648438 L 803.351562 6.648438 L 803.351562 803.351562 L 6.648438 803.351562 Z M 6.648438 6.648438 " fill-opacity="1" fill-rule="nonzero"/></g></g><g clip-path="url(#6956964a38)"><path fill="#ffffff" d="M 404.996094 302.167969 C 406.789062 302.167969 408.574219 302.253906 410.355469 302.429688 C 412.140625 302.605469 413.910156 302.867188 415.664062 303.21875 C 417.421875 303.566406 419.15625 304 420.871094 304.523438 C 422.585938 305.042969 424.269531 305.644531 425.925781 306.328125 C 427.582031 307.015625 429.199219 307.78125 430.777344 308.625 C 432.355469 309.46875 433.890625 310.386719 435.378906 311.382812 C 436.871094 312.378906 438.308594 313.445312 439.691406 314.582031 C 441.078125 315.71875 442.402344 316.917969 443.667969 318.183594 C 444.933594 319.453125 446.136719 320.777344 447.273438 322.160156 C 448.410156 323.546875 449.476562 324.984375 450.46875 326.472656 C 451.464844 327.960938 452.386719 329.496094 453.230469 331.078125 C 454.074219 332.65625 454.839844 334.273438 455.523438 335.929688 C 456.210938 337.582031 456.8125 339.269531 457.332031 340.980469 C 457.851562 342.695312 458.285156 344.429688 458.636719 346.1875 C 458.984375 347.945312 459.25 349.714844 459.421875 351.496094 C 459.597656 353.28125 459.6875 355.066406 459.6875 356.859375 L 459.6875 573.289062 C 459.6875 575.078125 459.597656 576.867188 459.421875 578.648438 C 459.25 580.429688 458.984375 582.199219 458.636719 583.957031 C 458.285156 585.714844 457.851562 587.449219 457.332031 589.164062 C 456.8125 590.878906 456.210938 592.5625 455.523438 594.21875 C 454.839844 595.871094 454.074219 597.488281 453.230469 599.070312 C 452.386719 600.648438 451.464844 602.183594 450.46875 603.671875 C 449.476562 605.164062 448.410156 606.597656 447.273438 607.984375 C 446.136719 609.367188 444.933594 610.695312 443.667969 611.960938 C 442.402344 613.226562 441.078125 614.429688 439.691406 615.566406 C 438.308594 616.703125 436.871094 617.765625 435.378906 618.761719 C 433.890625 619.757812 432.355469 620.675781 430.777344 621.519531 C 429.199219 622.367188 427.582031 623.128906 425.925781 623.816406 C 424.269531 624.5 422.585938 625.105469 420.871094 625.625 C 419.15625 626.144531 417.421875 626.578125 415.664062 626.929688 C 413.910156 627.277344 412.140625 627.539062 410.355469 627.714844 C 408.574219 627.890625 406.789062 627.980469 404.996094 627.980469 C 403.203125 627.980469 401.417969 627.890625 399.636719 627.714844 C 397.851562 627.539062 396.082031 627.277344 394.328125 626.929688 C 392.570312 626.578125 390.832031 626.144531 389.121094 625.625 C 387.40625 625.105469 385.722656 624.5 384.066406 623.816406 C 382.410156 623.128906 380.792969 622.367188 379.214844 621.519531 C 377.636719 620.675781 376.101562 619.757812 374.609375 618.761719 C 373.121094 617.765625 371.683594 616.703125 370.300781 615.566406 C 368.914062 614.429688 367.589844 613.226562 366.324219 611.960938 C 365.058594 610.695312 363.855469 609.367188 362.71875 607.984375 C 361.582031 606.597656 360.515625 605.164062 359.523438 603.671875 C 358.527344 602.183594 357.605469 600.648438 356.761719 599.070312 C 355.917969 597.488281 355.152344 595.871094 354.46875 594.21875 C 353.78125 592.5625 353.179688 590.878906 352.660156 589.164062 C 352.140625 587.449219 351.707031 585.714844 351.355469 583.957031 C 351.007812 582.199219 350.742188 580.429688 350.566406 578.648438 C 350.390625 576.867188 350.304688 575.078125 350.304688 573.289062 L 350.304688 356.859375 C 350.304688 355.066406 350.390625 353.28125 350.566406 351.496094 C 350.742188 349.714844 351.007812 347.945312 351.355469 346.1875 C 351.703125 344.429688 352.140625 342.695312 352.660156 340.980469 C 353.179688 339.269531 353.78125 337.582031 354.46875 335.929688 C 355.152344 334.273438 355.917969 332.65625 356.761719 331.078125 C 357.605469 329.496094 358.527344 327.960938 359.523438 326.472656 C 360.515625 324.984375 361.582031 323.546875 362.71875 322.160156 C 363.855469 320.777344 365.058594 319.453125 366.324219 318.183594 C 367.589844 316.917969 368.914062 315.71875 370.300781 314.582031 C 371.683594 313.445312 373.121094 312.378906 374.609375 311.382812 C 376.101562 310.386719 377.636719 309.46875 379.214844 308.625 C 380.792969 307.78125 382.410156 307.015625 384.066406 306.328125 C 385.722656 305.644531 387.40625 305.042969 389.121094 304.523438 C 390.832031 304 392.570312 303.566406 394.328125 303.21875 C 396.082031 302.867188 397.851562 302.605469 399.636719 302.429688 C 401.417969 302.253906 403.203125 302.167969 404.996094 302.167969 Z M 404.996094 302.167969 " fill-opacity="1" fill-rule="nonzero"/></g><g clip-path="url(#b7d3886163)"><path fill="#ffffff" d="M 459.6875 221.632812 C 459.6875 223.421875 459.597656 225.210938 459.421875 226.992188 C 459.25 228.773438 458.984375 230.546875 458.636719 232.300781 C 458.285156 234.058594 457.851562 235.792969 457.332031 237.507812 C 456.8125 239.222656 456.210938 240.90625 455.523438 242.5625 C 454.839844 244.214844 454.074219 245.832031 453.230469 247.414062 C 452.386719 248.992188 451.464844 250.527344 450.46875 252.015625 C 449.476562 253.507812 448.410156 254.941406 447.273438 256.328125 C 446.136719 257.710938 444.933594 259.039062 443.667969 260.304688 C 442.402344 261.570312 441.078125 262.773438 439.691406 263.910156 C 438.308594 265.046875 436.871094 266.109375 435.378906 267.105469 C 433.890625 268.101562 432.355469 269.019531 430.777344 269.867188 C 429.199219 270.710938 427.582031 271.476562 425.925781 272.160156 C 424.269531 272.84375 422.585938 273.449219 420.871094 273.96875 C 419.15625 274.488281 417.421875 274.921875 415.664062 275.273438 C 413.910156 275.621094 412.140625 275.882812 410.355469 276.058594 C 408.574219 276.234375 406.789062 276.324219 404.996094 276.324219 C 403.203125 276.324219 401.417969 276.234375 399.636719 276.058594 C 397.851562 275.882812 396.082031 275.621094 394.328125 275.273438 C 392.570312 274.921875 390.832031 274.488281 389.121094 273.96875 C 387.40625 273.449219 385.722656 272.84375 384.066406 272.160156 C 382.410156 271.476562 380.792969 270.710938 379.214844 269.867188 C 377.636719 269.019531 376.101562 268.101562 374.609375 267.105469 C 373.121094 266.109375 371.683594 265.046875 370.300781 263.910156 C 368.914062 262.773438 367.589844 261.570312 366.324219 260.304688 C 365.058594 259.039062 363.855469 257.710938 362.71875 256.328125 C 361.582031 254.941406 360.515625 253.507812 359.523438 252.015625 C 358.527344 250.527344 357.605469 248.992188 356.761719 247.414062 C 355.917969 245.832031 355.152344 244.214844 354.46875 242.5625 C 353.78125 240.90625 353.179688 239.222656 352.660156 237.507812 C 352.140625 235.792969 351.707031 234.058594 351.355469 232.300781 C 351.007812 230.546875 350.742188 228.773438 350.566406 226.992188 C 350.390625 225.210938 350.304688 223.421875 350.304688 221.632812 C 350.304688 219.839844 350.390625 218.054688 350.566406 216.269531 C 350.742188 214.488281 351.007812 212.71875 351.355469 210.960938 C 351.703125 209.207031 352.140625 207.46875 352.660156 205.757812 C 353.179688 204.042969 353.78125 202.359375 354.46875 200.703125 C 355.152344 199.046875 355.917969 197.429688 356.761719 195.851562 C 357.605469 194.269531 358.527344 192.738281 359.523438 191.246094 C 360.515625 189.757812 361.582031 188.320312 362.71875 186.9375 C 363.855469 185.550781 365.058594 184.226562 366.324219 182.960938 C 367.589844 181.691406 368.914062 180.492188 370.300781 179.355469 C 371.683594 178.21875 373.121094 177.152344 374.609375 176.15625 C 376.101562 175.164062 377.636719 174.242188 379.214844 173.398438 C 380.792969 172.554688 382.410156 171.789062 384.066406 171.105469 C 385.722656 170.417969 387.40625 169.816406 389.121094 169.296875 C 390.832031 168.777344 392.570312 168.339844 394.328125 167.992188 C 396.082031 167.640625 397.851562 167.378906 399.636719 167.203125 C 401.417969 167.027344 403.203125 166.941406 404.996094 166.941406 C 406.789062 166.941406 408.574219 167.027344 410.355469 167.203125 C 412.140625 167.378906 413.910156 167.640625 415.664062 167.992188 C 417.421875 168.339844 419.15625 168.777344 420.871094 169.296875 C 422.585938 169.816406 424.269531 170.417969 425.925781 171.105469 C 427.582031 171.789062 429.199219 172.554688 430.777344 173.398438 C 432.355469 174.242188 433.890625 175.164062 435.378906 176.15625 C 436.871094 177.152344 438.308594 178.21875 439.691406 179.355469 C 441.078125 180.492188 442.402344 181.691406 443.667969 182.960938 C 444.933594 184.226562 446.136719 185.550781 447.273438 186.9375 C 448.410156 188.320312 449.476562 189.757812 450.46875 191.246094 C 451.464844 192.738281 452.386719 194.269531 453.230469 195.851562 C 454.074219 197.429688 454.839844 199.046875 455.523438 200.703125 C 456.210938 202.359375 456.8125 204.042969 457.332031 205.757812 C 457.851562 207.46875 458.285156 209.207031 458.636719 210.960938 C 458.984375 212.71875 459.25 214.488281 459.421875 216.269531 C 459.597656 218.054688 459.6875 219.839844 459.6875 221.632812 Z M 459.6875 221.632812 " fill-opacity="1" fill-rule="nonzero"/></g></svg>