<svg xmlns="http://www.w3.org/2000/svg" xmlns:xlink="http://www.w3.org/1999/xlink" width="1080" zoomAndPan="magnify" viewBox="0 0 810 809.999993" height="1080" preserveAspectRatio="xMidYMid meet" version="1.0"><defs><clipPath id="568d5de09d"><path d="M 17.210938 17.210938 L 792.789062 17.210938 L 792.789062 792.789062 L 17.210938 792.789062 Z M 17.210938 17.210938 " clip-rule="nonzero"/></clipPath><clipPath id="3d3fa36b06"><path d="M 405 17.210938 C 190.832031 17.210938 17.210938 190.832031 17.210938 405 C 17.210938 619.171875 190.832031 792.789062 405 792.789062 C 619.167969 792.789062 792.789062 619.171875 792.789062 405 C 792.789062 190.832031 619.167969 17.210938 405 17.210938 Z M 405 17.210938 " clip-rule="nonzero"/></clipPath><clipPath id="944aecbaa4"><path d="M 83.78125 83.78125 L 726.53125 83.78125 L 726.53125 726.53125 L 83.78125 726.53125 Z M 83.78125 83.78125 " clip-rule="nonzero"/></clipPath></defs><g clip-path="url(#568d5de09d)"><g clip-path="url(#3d3fa36b06)"><path fill="#9336e1" d="M 17.210938 17.210938 L 792.789062 17.210938 L 792.789062 792.789062 L 17.210938 792.789062 Z M 17.210938 17.210938 " fill-opacity="1" fill-rule="nonzero"/></g></g><g clip-path="url(#944aecbaa4)"><path fill="#9336e1" d="M 83.78125 405.015625 C 83.78125 227.601562 227.601562 83.78125 405.015625 83.78125 C 582.425781 83.78125 726.214844 227.601562 726.214844 405.015625 C 726.214844 582.429688 582.425781 726.214844 405.015625 726.214844 C 227.601562 726.214844 83.78125 582.429688 83.78125 405.015625 Z M 83.78125 405.015625 " fill-opacity="1" fill-rule="evenodd"/></g><path fill="#ffffff" d="M 298.992188 525.832031 C 283.316406 506.574219 286.25 478 305.507812 462.359375 L 532.574219 277.648438 C 551.800781 262.007812 580.375 264.941406 596.046875 284.199219 C 611.71875 303.453125 608.753906 332.03125 589.53125 347.667969 L 362.460938 532.378906 C 343.207031 548.019531 314.664062 545.089844 298.992188 525.832031 Z M 298.992188 525.832031 " fill-opacity="1" fill-rule="evenodd"/><path fill="#ffffff" d="M 220.5 358.683594 C 239.753906 343.042969 268.332031 345.976562 284.003906 365.230469 L 367.609375 468.03125 C 383.28125 487.253906 380.316406 515.828125 361.0625 531.5 C 341.804688 547.171875 313.261719 544.207031 297.589844 524.984375 L 213.980469 422.1875 C 198.308594 402.929688 201.242188 374.355469 220.5 358.683594 Z M 220.5 358.683594 " fill-opacity="1" fill-rule="evenodd"/></svg>