<svg xmlns="http://www.w3.org/2000/svg" xmlns:xlink="http://www.w3.org/1999/xlink" width="1080" zoomAndPan="magnify" viewBox="0 0 810 809.999993" height="1080" preserveAspectRatio="xMidYMid meet" version="1.0"><defs><clipPath id="37a4f5d60e"><path d="M 20.597656 20.597656 L 789.402344 20.597656 L 789.402344 789.402344 L 20.597656 789.402344 Z M 20.597656 20.597656 " clip-rule="nonzero"/></clipPath><clipPath id="4838b93156"><path d="M 405 20.597656 C 192.699219 20.597656 20.597656 192.699219 20.597656 405 C 20.597656 617.300781 192.699219 789.402344 405 789.402344 C 617.300781 789.402344 789.402344 617.300781 789.402344 405 C 789.402344 192.699219 617.300781 20.597656 405 20.597656 Z M 405 20.597656 " clip-rule="nonzero"/></clipPath><clipPath id="9a97627731"><path d="M 198 136 L 629.78125 136 L 629.78125 673 L 198 673 Z M 198 136 " clip-rule="nonzero"/></clipPath></defs><g clip-path="url(#37a4f5d60e)"><g clip-path="url(#4838b93156)"><path fill="#9336e1" d="M 20.597656 20.597656 L 789.402344 20.597656 L 789.402344 789.402344 L 20.597656 789.402344 Z M 20.597656 20.597656 " fill-opacity="1" fill-rule="nonzero"/></g></g><g clip-path="url(#9a97627731)"><path fill="#ffffff" d="M 265.539062 672.675781 C 261.867188 672.675781 258.191406 671.550781 255.074219 669.289062 L 223.039062 646.148438 C 207.480469 634.90625 198.183594 616.726562 198.183594 597.519531 L 198.183594 207.929688 C 198.183594 168.503906 230.261719 136.429688 269.6875 136.429688 L 558.484375 136.429688 C 597.910156 136.429688 629.988281 168.503906 629.988281 207.929688 L 629.988281 597.5 C 629.988281 616.726562 620.683594 634.914062 605.09375 646.148438 L 573.027344 669.289062 C 566.78125 673.804688 558.332031 673.792969 552.101562 669.289062 L 513.007812 641.082031 L 473.960938 669.28125 C 467.695312 673.792969 459.265625 673.777344 453.027344 669.28125 L 414.015625 641.089844 L 374.984375 669.28125 C 368.734375 673.792969 360.296875 673.792969 354.050781 669.28125 L 315.027344 641.089844 L 276.015625 669.28125 C 272.886719 671.535156 269.214844 672.667969 265.550781 672.667969 Z M 513 601.175781 C 516.664062 601.175781 520.339844 602.300781 523.457031 604.554688 L 562.550781 632.761719 L 584.15625 617.164062 C 590.457031 612.625 594.21875 605.277344 594.21875 597.511719 L 594.21875 207.929688 C 594.21875 188.214844 578.183594 172.179688 558.46875 172.179688 L 269.679688 172.179688 C 249.960938 172.179688 233.925781 188.214844 233.925781 207.929688 L 233.925781 597.519531 C 233.925781 605.277344 237.679688 612.625 243.972656 617.175781 L 265.539062 632.753906 L 304.554688 604.5625 C 310.800781 600.050781 319.246094 600.050781 325.496094 604.5625 L 364.515625 632.753906 L 403.546875 604.5625 C 409.796875 600.050781 418.242188 600.058594 424.480469 604.5625 L 463.484375 632.753906 L 502.535156 604.5625 C 505.664062 602.308594 509.335938 601.183594 513 601.183594 Z M 513 601.175781 " fill-opacity="1" fill-rule="nonzero"/></g><path fill="#ffffff" d="M 531.589844 401.980469 L 296.554688 401.980469 C 286.6875 401.980469 278.679688 393.96875 278.679688 384.101562 C 278.679688 374.234375 286.6875 366.226562 296.554688 366.226562 L 531.589844 366.226562 C 541.457031 366.226562 549.46875 374.234375 549.46875 384.101562 C 549.46875 393.96875 541.457031 401.980469 531.589844 401.980469 Z M 531.589844 401.980469 " fill-opacity="1" fill-rule="nonzero"/><path fill="#ffffff" d="M 531.589844 310.9375 L 296.554688 310.9375 C 286.6875 310.9375 278.679688 302.929688 278.679688 293.0625 C 278.679688 283.195312 286.6875 275.1875 296.554688 275.1875 L 531.589844 275.1875 C 541.457031 275.1875 549.46875 283.195312 549.46875 293.0625 C 549.46875 302.929688 541.457031 310.9375 531.589844 310.9375 Z M 531.589844 310.9375 " fill-opacity="1" fill-rule="nonzero"/><path fill="#ffffff" d="M 531.589844 493.027344 L 296.554688 493.027344 C 286.6875 493.027344 278.679688 485.019531 278.679688 475.152344 C 278.679688 465.285156 286.6875 457.277344 296.554688 457.277344 L 531.589844 457.277344 C 541.457031 457.277344 549.46875 465.285156 549.46875 475.152344 C 549.46875 485.019531 541.457031 493.027344 531.589844 493.027344 Z M 531.589844 493.027344 " fill-opacity="1" fill-rule="nonzero"/></svg>