<svg xmlns="http://www.w3.org/2000/svg" xmlns:xlink="http://www.w3.org/1999/xlink" width="1080" zoomAndPan="magnify" viewBox="0 0 810 809.999993" height="1080" preserveAspectRatio="xMidYMid meet" version="1.0"><defs><clipPath id="9f016826b0"><path d="M 17.988281 17.988281 L 792.011719 17.988281 L 792.011719 792.011719 L 17.988281 792.011719 Z M 17.988281 17.988281 " clip-rule="nonzero"/></clipPath><clipPath id="ea4ff32339"><path d="M 405 17.988281 C 191.261719 17.988281 17.988281 191.261719 17.988281 405 C 17.988281 618.738281 191.261719 792.011719 405 792.011719 C 618.738281 792.011719 792.011719 618.738281 792.011719 405 C 792.011719 191.261719 618.738281 17.988281 405 17.988281 Z M 405 17.988281 " clip-rule="nonzero"/></clipPath><clipPath id="235f4900f7"><path d="M 107 113 L 686 113 L 686 624.976562 L 107 624.976562 Z M 107 113 " clip-rule="nonzero"/></clipPath></defs><g clip-path="url(#9f016826b0)"><g clip-path="url(#ea4ff32339)"><path fill="#9336e1" d="M 17.988281 17.988281 L 792.011719 17.988281 L 792.011719 792.011719 L 17.988281 792.011719 Z M 17.988281 17.988281 " fill-opacity="1" fill-rule="nonzero"/></g></g><g clip-path="url(#235f4900f7)"><path fill="#9336e1" d="M 430.949219 133.800781 L 679.632812 564.5625 C 695.03125 591.15625 675.785156 624.515625 644.992188 624.515625 L 147.625 624.515625 C 116.832031 624.515625 97.585938 591.15625 112.980469 564.5625 L 361.664062 133.800781 C 377.0625 107.207031 415.554688 107.207031 430.949219 133.800781 Z M 430.949219 133.800781 " fill-opacity="1" fill-rule="nonzero"/></g><path fill="#ffffff" d="M 144.125 559.3125 L 376.710938 156.429688 C 385.460938 141.382812 407.273438 141.382812 415.902344 156.429688 L 648.488281 559.3125 C 657.238281 574.359375 646.273438 593.257812 628.894531 593.257812 L 163.722656 593.257812 C 146.226562 593.257812 135.378906 574.359375 144.125 559.3125 Z M 144.125 559.3125 " fill-opacity="1" fill-rule="nonzero"/><path fill="#9336e1" d="M 170.601562 564.679688 L 396.308594 173.691406 L 622.011719 564.679688 Z M 170.601562 564.679688 " fill-opacity="1" fill-rule="nonzero"/><path fill="#ffffff" d="M 414.738281 512.308594 C 414.738281 522.453125 406.457031 530.734375 396.308594 530.734375 C 386.160156 530.734375 377.878906 522.453125 377.878906 512.308594 C 377.878906 502.160156 386.160156 493.878906 396.308594 493.878906 C 406.457031 493.761719 414.738281 502.042969 414.738281 512.308594 Z M 427.917969 300.601562 C 428.734375 284.734375 414.269531 271.4375 396.308594 271.4375 C 378.34375 271.4375 363.996094 284.734375 364.699219 300.601562 L 384.761719 477.898438 L 407.738281 477.898438 Z M 427.917969 300.601562 " fill-opacity="1" fill-rule="nonzero"/></svg>